<?xml version="1.0" encoding="UTF-8" standalone="no" ?>
<!DOCTYPE svg PUBLIC "-//W3C//DTD SVG 1.1//EN" "http://www.w3.org/Graphics/SVG/1.1/DTD/svg11.dtd">
<svg xmlns="http://www.w3.org/2000/svg" xmlns:xlink="http://www.w3.org/1999/xlink" version="1.1" width="724.8020049095154" height="204.03631999999996" xml:space="preserve">
<desc>Created with Fabric.js 1.6.0-rc.1</desc>
<defs></defs>
  <g transform="translate(419.03 103.77) scale(3.51 3.51)">
   <text font-family="Dooodleista" font-size="40" font-weight="normal" style="stroke: none; stroke-width: 1; stroke-dasharray: none; stroke-linecap: butt; stroke-linejoin: miter; stroke-miterlimit: 10; fill: #006699; fill-rule: nonzero; opacity: 1;" ><tspan x="-84.77" y="8.98" style="stroke: none; stroke-width: 0; stroke-dasharray: none; stroke-linecap: butt; stroke-linejoin: miter; stroke-miterlimit: 4; fill: #006699; fill-rule: ; opacity: 1;">R</tspan><tspan x="-73.65" y="8.98" style="stroke: none; stroke-width: 0; stroke-dasharray: none; stroke-linecap: butt; stroke-linejoin: miter; stroke-miterlimit: 4; fill: #006699; fill-rule: ; opacity: 1;">e</tspan><tspan x="-62.53" y="8.98" style="stroke: none; stroke-width: 0; stroke-dasharray: none; stroke-linecap: butt; stroke-linejoin: miter; stroke-miterlimit: 4; fill: #006699; fill-rule: ; opacity: 1;">s</tspan><tspan x="-52.53" y="8.98" style="stroke: none; stroke-width: 0; stroke-dasharray: none; stroke-linecap: butt; stroke-linejoin: miter; stroke-miterlimit: 4; fill: #006699; fill-rule: ; opacity: 1;">p</tspan><tspan x="-41.42" y="8.98" style="stroke: none; stroke-width: 0; stroke-dasharray: none; stroke-linecap: butt; stroke-linejoin: miter; stroke-miterlimit: 4; fill: #006699; fill-rule: ; opacity: 1;">o</tspan><tspan x="-30.85" y="8.98" style="stroke: none; stroke-width: 0; stroke-dasharray: none; stroke-linecap: butt; stroke-linejoin: miter; stroke-miterlimit: 4; fill: #006699; fill-rule: ; opacity: 1;">n</tspan><tspan x="-19.17" y="8.98" style="stroke: none; stroke-width: 0; stroke-dasharray: none; stroke-linecap: butt; stroke-linejoin: miter; stroke-miterlimit: 4; fill: #006699; fill-rule: ; opacity: 1;">s</tspan><tspan x="-9.17" y="8.98" style="stroke: none; stroke-width: 0; stroke-dasharray: none; stroke-linecap: butt; stroke-linejoin: miter; stroke-miterlimit: 4; fill: #006699; fill-rule: ; opacity: 1;">i</tspan><tspan x="-4.17" y="8.98" style="stroke: none; stroke-width: 0; stroke-dasharray: none; stroke-linecap: butt; stroke-linejoin: miter; stroke-miterlimit: 4; fill: #006699; fill-rule: ; opacity: 1;">v</tspan><tspan x="6.95" y="8.98" style="stroke: none; stroke-width: 0; stroke-dasharray: none; stroke-linecap: butt; stroke-linejoin: miter; stroke-miterlimit: 4; fill: #006699; fill-rule: ; opacity: 1;">e</tspan><tspan x="18.07" y="8.98" style="stroke: none; stroke-width: 0; stroke-dasharray: none; stroke-linecap: butt; stroke-linejoin: miter; stroke-miterlimit: 4; fill: #006699; fill-rule: ; opacity: 1;"> </tspan><tspan x="28.07" y="8.98" style="stroke: none; stroke-width: 0; stroke-dasharray: none; stroke-linecap: butt; stroke-linejoin: miter; stroke-miterlimit: 4; fill: #006699; fill-rule: ; opacity: 1;">T</tspan><tspan x="40.3" y="8.98" style="stroke: none; stroke-width: 0; stroke-dasharray: none; stroke-linecap: butt; stroke-linejoin: miter; stroke-miterlimit: 4; fill: #006699; fill-rule: ; opacity: 1;">a</tspan><tspan x="51.42" y="8.98" style="stroke: none; stroke-width: 0; stroke-dasharray: none; stroke-linecap: butt; stroke-linejoin: miter; stroke-miterlimit: 4; fill: #006699; fill-rule: ; opacity: 1;">s</tspan><tspan x="61.42" y="8.98" style="stroke: none; stroke-width: 0; stroke-dasharray: none; stroke-linecap: butt; stroke-linejoin: miter; stroke-miterlimit: 4; fill: #006699; fill-rule: ; opacity: 1;">t</tspan><tspan x="73.65" y="8.98" style="stroke: none; stroke-width: 0; stroke-dasharray: none; stroke-linecap: butt; stroke-linejoin: miter; stroke-miterlimit: 4; fill: #006699; fill-rule: ; opacity: 1;">e</tspan></text>
 </g>
<g style="stroke: none; stroke-width: 1; stroke-dasharray: none; stroke-linecap: butt; stroke-linejoin: miter; stroke-miterlimit: 10; fill: none; fill-rule: nonzero; opacity: 1;" transform="translate(9.999999999999993 35.98000000000002) scale(0.22 0.22)" >
  <path d="M 315.641 425.913 H 194.189 c -35.945 0 -65.084 -29.139 -65.084 -65.084 V 148.556 h 251.621 v 212.273 C 380.725 396.774 351.586 425.913 315.641 425.913 z" style="stroke: none; stroke-width: 1; stroke-dasharray: none; stroke-linecap: butt; stroke-linejoin: miter; stroke-miterlimit: 10; fill: #73CBD1; fill-rule: nonzero; opacity: 1;" transform=" matrix(1 0 0 1 0 0) " stroke-linecap="round" />
  <path d="M 359.799 148.556 v 212.239 c 0 35.964 -29.124 65.118 -65.051 65.118 h 20.926 c 35.926 0 65.051 -29.154 65.051 -65.118 V 148.556 H 359.799 z" style="stroke: none; stroke-width: 1; stroke-dasharray: none; stroke-linecap: butt; stroke-linejoin: miter; stroke-miterlimit: 10; fill: #47B5BF; fill-rule: nonzero; opacity: 1;" transform=" matrix(1 0 0 1 0 0) " stroke-linecap="round" />
  <path d="M 482.782 453.483 H 29.218 c -11.995 0 -21.718 -9.724 -21.718 -21.718 v -6.088 h 497 v 6.088 C 504.5 443.759 494.776 453.483 482.782 453.483 z" style="stroke: none; stroke-width: 1; stroke-dasharray: none; stroke-linecap: butt; stroke-linejoin: miter; stroke-miterlimit: 10; fill: #F6CC65; fill-rule: nonzero; opacity: 1;" transform=" matrix(1 0 0 1 0 0) " stroke-linecap="round" />
  <path d="M 150.031 360.819 V 148.556 h 209.768 v 212.262 c 0 24.382 -19.765 44.147 -44.147 44.147 H 194.178 C 169.796 404.965 150.031 385.2 150.031 360.819 z" style="stroke: none; stroke-width: 1; stroke-dasharray: none; stroke-linecap: butt; stroke-linejoin: miter; stroke-miterlimit: 10; fill: #C2AE86; fill-rule: nonzero; opacity: 1;" transform=" matrix(1 0 0 1 0 0) " stroke-linecap="round" />
  <rect x="88.25" y="453.44" rx="0" ry="0" width="335.51" height="23.55" style="stroke: none; stroke-width: 1; stroke-dasharray: none; stroke-linecap: butt; stroke-linejoin: miter; stroke-miterlimit: 10; fill: #E89D41; fill-rule: nonzero; opacity: 1;" transform=" matrix(1 0 0 1 0 0) "/>
  <path d="M 359.795 148.561 v 83.31 c -3.317 1.603 -7.272 2.639 -12.357 2.639 c -3.285 0 -6.09 -0.429 -8.569 -1.173 c -14.763 -4.41 -17.578 -19.775 -37.155 -19.775 c -22.862 0 -22.862 20.948 -45.724 20.948 s -22.862 -20.948 -45.724 -20.948 s -22.862 20.948 -45.714 20.948 c -6.226 0 -10.767 -1.561 -14.523 -3.823 v -82.126 H 359.795 z" style="stroke: none; stroke-width: 1; stroke-dasharray: none; stroke-linecap: butt; stroke-linejoin: miter; stroke-miterlimit: 10; fill: #854437; fill-rule: nonzero; opacity: 1;" transform=" matrix(1 0 0 1 0 0) " stroke-linecap="round" />
  <path d="M 129.105 148.553 c 0 0 -8.964 -52.051 53.736 -66.929 c 77.255 -18.331 106.203 -46.632 106.203 -46.632 s 110.566 45.046 91.682 113.561 H 129.105 z" style="stroke: none; stroke-width: 1; stroke-dasharray: none; stroke-linecap: butt; stroke-linejoin: miter; stroke-miterlimit: 10; fill: #F6F1DD; fill-rule: nonzero; opacity: 1;" transform=" matrix(1 0 0 1 0 0) " stroke-linecap="round" />
  <path d="M 483.574 425.676 v 6.077 c 0 12.001 -9.719 21.73 -21.707 21.73 h 20.926 c 11.988 0 21.707 -9.729 21.707 -21.73 v -6.077 H 483.574 z" style="stroke: none; stroke-width: 1; stroke-dasharray: none; stroke-linecap: butt; stroke-linejoin: miter; stroke-miterlimit: 10; fill: #E89D41; fill-rule: nonzero; opacity: 1;" transform=" matrix(1 0 0 1 0 0) " stroke-linecap="round" />
  <path d="M 338.873 148.556 v 212.239 c 0 24.355 -19.794 44.17 -44.124 44.17 h 20.926 c 24.33 0 44.124 -19.815 44.124 -44.17 V 148.556 H 338.873 z" style="stroke: none; stroke-width: 1; stroke-dasharray: none; stroke-linecap: butt; stroke-linejoin: miter; stroke-miterlimit: 10; fill: #A89774; fill-rule: nonzero; opacity: 1;" transform=" matrix(1 0 0 1 0 0) " stroke-linecap="round" />
  <rect x="402.83" y="453.44" rx="0" ry="0" width="20.93" height="23.55" style="stroke: none; stroke-width: 1; stroke-dasharray: none; stroke-linecap: butt; stroke-linejoin: miter; stroke-miterlimit: 10; fill: #C27A40; fill-rule: nonzero; opacity: 1;" transform=" matrix(1 0 0 1 0 0) "/>
  <path d="M 359.795 148.561 v 83.31 c -3.317 1.603 -7.272 2.639 -12.357 2.639 c -3.285 0 -6.09 -0.429 -8.569 -1.173 v -84.776 H 359.795 z" style="stroke: none; stroke-width: 1; stroke-dasharray: none; stroke-linecap: butt; stroke-linejoin: miter; stroke-miterlimit: 10; fill: #63352B; fill-rule: nonzero; opacity: 1;" transform=" matrix(1 0 0 1 0 0) " stroke-linecap="round" />
  <path d="M 289.043 34.992 c 0 0 -2.421 2.364 -7.718 6.164 c 28.742 14.527 93.253 53.772 78.474 107.396 h 20.926 C 399.609 80.038 289.043 34.992 289.043 34.992 z" style="stroke: none; stroke-width: 1; stroke-dasharray: none; stroke-linecap: butt; stroke-linejoin: miter; stroke-miterlimit: 10; fill: #D6C9AD; fill-rule: nonzero; opacity: 1;" transform=" matrix(1 0 0 1 0 0) " stroke-linecap="round" />
  <path d="M 504.5 418.183 H 360.061 c 17.117 -13.296 28.164 -34.066 28.164 -57.383 V 234.509 c 0 -4.142 -3.358 -7.5 -7.5 -7.5 s -7.5 3.358 -7.5 7.5 V 360.8 c 0 30.059 -23.112 54.801 -52.476 57.383 H 189.081 c -29.364 -2.582 -52.477 -27.324 -52.477 -57.383 V 156.052 h 5.925 v 74.633 c 0 0.01 0.002 0.02 0.002 0.03 v 130.107 c 0 28.479 23.168 51.649 51.646 51.649 h 121.474 c 28.478 0 51.647 -23.17 51.647 -51.649 v -204.77 h 5.926 v 34.397 c 0 4.142 3.358 7.5 7.5 7.5 s 7.5 -3.358 7.5 -7.5 v -40.975 c 7.975 -30.81 -6.39 -61.666 -41.631 -89.304 c -25.81 -20.242 -53.552 -31.656 -54.721 -32.133 c -0.054 -0.022 -0.11 -0.033 -0.165 -0.053 c -0.183 -0.07 -0.369 -0.125 -0.556 -0.18 c -0.158 -0.046 -0.314 -0.095 -0.473 -0.13 c -0.208 -0.047 -0.417 -0.076 -0.626 -0.105 c -0.138 -0.018 -0.275 -0.041 -0.413 -0.052 c -0.242 -0.019 -0.482 -0.02 -0.724 -0.015 c -0.106 0.002 -0.212 -0.001 -0.318 0.005 c -0.271 0.016 -0.539 0.053 -0.806 0.099 c -0.077 0.013 -0.155 0.021 -0.232 0.037 c -0.279 0.056 -0.553 0.134 -0.826 0.222 c -0.067 0.022 -0.135 0.039 -0.201 0.062 c -0.259 0.092 -0.51 0.204 -0.759 0.325 c -0.08 0.039 -0.162 0.073 -0.241 0.115 c -0.215 0.114 -0.421 0.246 -0.626 0.382 c -0.108 0.071 -0.218 0.138 -0.323 0.216 c -0.048 0.036 -0.102 0.063 -0.149 0.1 c -0.119 0.093 -0.22 0.201 -0.332 0.3 c -0.092 0.08 -0.192 0.148 -0.28 0.233 c -0.174 0.168 -17.914 16.936 -61.28 32.526 c -3.898 1.401 -5.922 5.697 -4.521 9.595 s 5.697 5.923 9.595 4.521 c 25.807 -9.277 43.169 -18.991 53.696 -25.976 c -2.425 10.754 -10.668 25.588 -36.13 35.464 c -41.836 16.227 -50.121 42.759 -51.618 55.319 h -57.39 c 0.068 -4.478 0.734 -10.911 3.306 -17.744 c 6.495 -17.26 21.666 -28.83 45.093 -34.389 c 4.03 -0.956 6.522 -4.999 5.566 -9.029 c -0.957 -4.03 -4.997 -6.524 -9.029 -5.566 c -35.598 8.447 -49.921 28.427 -55.669 43.701 c -5.537 14.715 -4.267 27.856 -3.836 31.066 v 211.712 c 0 23.317 11.047 44.087 28.164 57.383 H 88.247 c -4.142 0 -7.5 3.358 -7.5 7.5 s 3.358 7.5 7.5 7.5 h 100.319 c 1.847 0.142 3.707 0.237 5.59 0.237 h 121.52 c 1.883 0 3.742 -0.095 5.59 -0.237 H 496.93 c -0.715 7.18 -6.783 12.807 -14.137 12.807 h -58.235 c -0.264 -0.028 -0.532 -0.044 -0.804 -0.044 H 88.247 c -0.272 0 -0.54 0.016 -0.804 0.044 H 29.207 c -7.354 0 -13.421 -5.626 -14.137 -12.807 h 30.62 c 4.142 0 7.5 -3.358 7.5 -7.5 s -3.358 -7.5 -7.5 -7.5 H 7.5 c -4.142 0 -7.5 3.358 -7.5 7.5 v 6.077 c 0 16.118 13.102 29.231 29.207 29.231 h 51.54 v 16.012 c 0 4.142 3.358 7.5 7.5 7.5 h 335.507 c 4.142 0 7.5 -3.358 7.5 -7.5 v -16.01 h 51.54 c 16.105 0 29.207 -13.113 29.207 -29.231 v -6.077 C 512 421.541 508.642 418.183 504.5 418.183 z M 170.957 182.949 c -4.142 0 -7.5 3.358 -7.5 7.5 v 36.523 c -2.175 -0.083 -4.12 -0.399 -5.926 -1.012 v -69.904 h 194.763 v 70.492 c -1.495 0.31 -3.096 0.46 -4.857 0.46 c -8.514 0 -12.407 -3.567 -17.795 -8.504 c -6.051 -5.545 -13.582 -12.445 -27.929 -12.445 s -21.878 6.9 -27.929 12.445 c -5.388 4.937 -9.28 8.504 -17.795 8.504 s -12.408 -3.567 -17.795 -8.504 c -6.051 -5.544 -13.582 -12.444 -27.929 -12.444 c -14.35 0 -21.88 6.902 -27.93 12.447 c -1.355 1.242 -2.615 2.396 -3.878 3.43 v -31.488 C 178.457 186.307 175.099 182.949 170.957 182.949 z M 315.652 397.471 H 194.178 c -20.207 0 -36.646 -16.441 -36.646 -36.648 V 241.39 c 1.901 0.346 3.877 0.535 5.926 0.587 v 118.822 c 0 16.941 13.771 30.723 30.698 30.723 c 4.142 0 7.5 -3.358 7.5 -7.5 s -3.358 -7.5 -7.5 -7.5 c -8.656 0 -15.698 -7.053 -15.698 -15.723 V 239.374 c 6.04 -2.516 10.308 -6.413 14.013 -9.808 c 5.387 -4.938 9.28 -8.505 17.795 -8.505 c 8.514 0 12.407 3.567 17.795 8.504 c 6.051 5.545 13.582 12.445 27.929 12.445 c 14.347 0 21.878 -6.9 27.929 -12.445 c 5.388 -4.937 9.28 -8.504 17.795 -8.504 s 12.408 3.567 17.795 8.504 c 6.051 5.544 13.582 12.444 27.929 12.444 c 1.677 0 3.292 -0.104 4.861 -0.292 v 119.104 C 352.299 381.03 335.859 397.471 315.652 397.471 z M 374.705 141.048 h -64.826 c -1.451 -6.499 -2.658 -18.631 4.612 -29.397 c 9.084 -13.45 12.333 -31.358 8.48 -46.734 c -0.315 -1.259 -0.699 -2.578 -1.157 -3.94 C 348.798 78.35 380.357 106.534 374.705 141.048 z M 250.605 99.715 c 28.775 -11.161 39.753 -28.366 43.895 -40.834 c 1.125 -3.389 1.823 -6.606 2.231 -9.544 c 5.917 5.384 9.833 11.816 11.69 19.227 c 3.406 13.591 -1.053 26.832 -6.361 34.691 c -9.172 13.581 -9.005 28.265 -7.428 37.792 H 208.68 C 210.312 131.673 217.757 112.456 250.605 99.715 z M 416.253 469.5 H 95.747 v -8.51 h 320.507 v 8.51 H 416.253 z" style="stroke: none; stroke-width: 1; stroke-dasharray: none; stroke-linecap: butt; stroke-linejoin: miter; stroke-miterlimit: 10; fill: rgb(0,0,0); fill-rule: nonzero; opacity: 1;" transform=" matrix(1 0 0 1 0 0) " stroke-linecap="round" />
</g>
</svg>